<?xml version="1.0" encoding="utf-8"?>
<svg xmlns="http://www.w3.org/2000/svg" viewBox="332.6259 335.163 130 130" width="130px" height="130px">
  <g id="dashed-circle" transform="matrix(6.474555015563965, 0, 0, 6.460912227630615, 429.6069641113281, 432.07666015625)" style="">
    <path d="M166.926,155.377c8.633-10.416,14.741-22.853,17.662-35.965l14.641,3.262c-3.435,15.42-10.612,30.039-20.754,42.275 L166.926,155.377z M162.129,20.796c-12.603-9.675-27.482-16.296-43.03-19.146l-2.705,14.754c13.219,2.424,25.876,8.057,36.6,16.291 L162.129,20.796z M4.476,71.48l14.351,4.365C22.735,62.992,29.764,51.047,39.153,41.3L28.35,30.894 C17.326,42.338,9.07,56.373,4.476,71.48z M33.814,175.861c11.849,10.591,26.185,18.314,41.459,22.332l3.817-14.506 c-12.992-3.419-25.192-9.992-35.281-19.01L33.814,175.861z M12.953,149.881l13.083-7.338c-6.587-11.744-10.334-25.08-10.835-38.564 l-14.989,0.559C0.801,120.389,5.207,136.068,12.953,149.881z M61.936,24.369C74.073,18.152,87.179,15,100.888,15V0 C85.005,0,69.171,3.811,55.097,11.019L61.936,24.369z M200.998,89.399c-1.771-15.729-7.349-31.032-16.13-44.254l-12.495,8.299 c7.469,11.247,12.213,24.261,13.72,37.635L200.998,89.399z M108.462,201.21c15.8-1.181,31.303-6.177,44.832-14.448l-7.824-12.797 c-11.506,7.033-24.689,11.282-38.125,12.286L108.462,201.21z" transform="scale(0.1) translate(-150, -150)" style="fill: none; stroke: #000000; stroke-width: 2; stroke-linecap: round; stroke-linejoin: round;"/>
  </g>
  <!--<g id="asterisk" transform="matrix(9.859118461608887, 0, 0, 8.796993255615234, 282.45458984375, 291.4894714355469)" style="">
    <path d="M 9 1 L 9 9.6328125 L 1.5234375 5.3164062 L 1.0234375 6.1835938 L 8.5 10.5 L 1.0234375 14.816406 L 1.5234375 15.683594 L 9 11.367188 L 9 20 L 10 20 L 10 11.367188 L 17.476562 15.683594 L 17.976562 14.816406 L 10.5 10.5 L 17.976562 6.1835938 L 17.476562 5.3164062 L 10 9.6328125 L 10 1 L 9 1 z" transform="translate(7, 7) scale(0.5)" style="fill: #222222; fill-opacity: 1; stroke-width: 0.0002;"/>
  </g>-->
</svg>